<svg xmlns="http://www.w3.org/2000/svg" xmlns:xlink="http://www.w3.org/1999/xlink" width="640" height="385.65"><rect width="640" height="385.65" rx="5" ry="5" class="a"/><svg y="0%" x="0%"><circle cx="20" cy="20" r="6" fill="#ff5f58"/><circle cx="40" cy="20" r="6" fill="#ffbd2e"/><circle cx="60" cy="20" r="6" fill="#18c132"/></svg><svg height="325.65" viewBox="0 0 60 32.565" width="600" x="15" xmlns="http://www.w3.org/2000/svg" xmlns:xlink="http://www.w3.org/1999/xlink" y="50"><style>.a{fill:#282d35}.g{fill:#b9c0cb}</style><g font-size="1.67" font-family="Monaco,Consolas,Menlo,'Bitstream Vera Sans Mono','Powerline Symbols',monospace"><defs><symbol id="a"><path fill="transparent" d="M0 0h60v16H0z"/></symbol></defs><path class="a" d="M0 0h60v32.565H0z"/><svg width="60"><svg><use xlink:href="#a"/><text y="1.67" class="g">bash-3.2$</text><text x="10.02" y="1.67" class="g">ipt</text><text x="14.028" y="1.67" class="g">TODO</text><text x="19.038" y="1.67" class="g">&gt;&gt;</text><text x="22.044" y="1.67" class="g">DONE</text><text y="3.841" class="g">?</text><text x="2.004" y="3.841" class="g">Select</text><text x="9.018" y="3.841" class="g">an</text><text x="12.024" y="3.841" class="g">item:</text><text x="18.036" y="3.841" class="g">(Use</text><text x="23.046" y="3.841" class="g">arrow</text><text x="29.058" y="3.841" class="g">keys)</text><text y="6.012" class="g">❯</text><text x="2.004" y="6.012" class="g">Apples</text><text x="2.004" y="8.183" class="g">Bananas</text><text x="2.004" y="10.354" class="g">Lemons</text><text x="2.004" y="12.525" class="g">Oranges</text></svg></svg></g></svg></svg>