<svg xmlns="http://www.w3.org/2000/svg" xmlns:xlink="http://www.w3.org/1999/xlink" width="640" height="494.2"><rect width="640" height="494.2" rx="5" ry="5" class="a"/><svg y="0%" x="0%"><circle cx="20" cy="20" r="6" fill="#ff5f58"/><circle cx="40" cy="20" r="6" fill="#ffbd2e"/><circle cx="60" cy="20" r="6" fill="#18c132"/></svg><svg height="434.2" viewBox="0 0 60 43.42" width="600" x="15" xmlns="http://www.w3.org/2000/svg" xmlns:xlink="http://www.w3.org/1999/xlink" y="50"><style>.a{fill:#282d35}.g,.i{fill:#b9c0cb;white-space:pre}.i,.j{font-weight:700}.j,.k{fill:#66c2cd;white-space:pre}</style><g font-family="Monaco,Consolas,Menlo,'Bitstream Vera Sans Mono','Powerline Symbols',monospace" font-size="1.67"><defs><symbol id="a"><path fill="transparent" d="M0 0h60v21H0z"/></symbol></defs><path class="a" d="M0 0h60v43.42H0z"/><svg width="60"><svg><use xlink:href="#a"/><text y="1.67" class="g">bash-3.2$</text><text x="10.02" y="1.67" class="g">ls</text><text x="13.026" y="1.67" class="g">|</text><text x="15.03" y="1.67" class="g">ipt</text><text x="19.038" y="1.67" class="g">-m</text><text y="3.841" style="white-space:pre" fill="#a8cc8c">?</text><text x="2.004" y="3.841" class="i">Select</text><text x="9.018" y="3.841" class="i">multiple</text><text x="18.036" y="3.841" class="i">items:</text><text x="25.05" y="3.841" class="g">(Press</text><text x="32.064" y="3.841" class="j">&lt;space&gt;</text><text x="40.08" y="3.841" class="g">to</text><text x="43.086" y="3.841" class="g">select,</text><text x="51.102" y="3.841" class="j">&lt;a&gt;</text><text x="55.11" y="3.841" class="g">to</text><text x="58.116" y="3.841" class="g">to</text><text y="6.012" class="g">ggle</text><text x="5.01" y="6.012" class="g">all,</text><text x="10.02" y="6.012" class="j">&lt;i&gt;</text><text x="14.028" y="6.012" class="g">to</text><text x="17.034" y="6.012" class="g">invert</text><text x="24.048" y="6.012" class="g">selection)</text><text y="8.183" class="k">❯◯</text><text x="3.006" y="8.183" class="k">README.md</text><text x="1.002" y="10.354" class="g">◯</text><text x="3.006" y="10.354" class="g">a</text><text x="1.002" y="12.525" class="g">◯</text><text x="3.006" y="12.525" class="g">index.js</text><text x="1.002" y="14.696" class="g">◯</text><text x="3.006" y="14.696" class="g">package.json</text></svg></svg></g></svg></svg>