<svg xmlns="http://www.w3.org/2000/svg" viewBox="0 0 288.7 325.19"><defs><style>.cls-1{fill:#3ba558}.cls-2{fill:#2f8447}.cls-3{fill:#73e67c}.cls-4,.cls-5{fill:#1d4e28}.cls-5{opacity:.2}</style></defs><title>Asset 1</title><g id="Layer_2" data-name="Layer 2"><g id="Layer_1-2" data-name="Layer 1"><path class="cls-1" d="M183 2.83A103 103 0 0 0 80 105.75V138H57.19v-2.84a2.84 2.84 0 0 0-2.84-2.83H25.68a2.84 2.84 0 0 0-2.84 2.83v76.34a2.84 2.84 0 0 0 2.84 2.84h28.67a2.84 2.84 0 0 0 2.84-2.84v-2.83H80V268h-2.8a2.84 2.84 0 0 0-2.84 2.83v28.68a2.84 2.84 0 0 0 2.84 2.83h76.33a2.84 2.84 0 0 0 2.84-2.83v-28.68a2.84 2.84 0 0 0-2.84-2.83h-2.83v-62.17a2.84 2.84 0 0 0 2.83 2.84H183a102.92 102.92 0 0 0 0-205.84zM183 138h-29.47a2.83 2.83 0 0 0-2.83 2.83v-35.08A32.25 32.25 0 1 1 183 138z"/><path class="cls-2" d="M71.53 322.35a2.84 2.84 0 0 1-2.84-2.83v-14.34a2.84 2.84 0 0 1 2.84-2.84h87.67a2.84 2.84 0 0 1 2.84 2.84v14.34a2.84 2.84 0 0 1-2.84 2.83zM20 220a2.83 2.83 0 0 0 2.83-2.83v-87.68a2.83 2.83 0 0 0-2.83-2.83H5.67a2.84 2.84 0 0 0-2.84 2.83v87.68A2.84 2.84 0 0 0 5.67 220z"/><path class="cls-3" d="M229.1 110.75a5.63 5.63 0 0 1 5.62-5 5.69 5.69 0 0 1 5.64 6.34A57.84 57.84 0 0 1 183 163.51h-29.47v-11.34H183a46.49 46.49 0 0 0 46.1-41.42zM183 22.88a5.67 5.67 0 0 0-6-5.67 88.86 88.86 0 0 0-82.8 88.54v159.41h11.34V105.75a77.52 77.52 0 0 1 72.15-77.23 5.65 5.65 0 0 0 5.31-5.64zM77.2 152.45H60v11.06h17.2zm22.67 118.38H88.54v28.68h11.33zm-5.67 34.35H82.87v14.17H94.2zM54.35 157.84V146.5H25.68v11.34zM20 152.17v-11.34H5.83v11.34z"/><path class="cls-4" d="M183 0A105.87 105.87 0 0 0 77.2 105.75v29.41H60a5.67 5.67 0 0 0-5.67-5.67H25.68a5.67 5.67 0 0 0-5.68-5.67H5.67A5.67 5.67 0 0 0 0 129.49v87.68a5.67 5.67 0 0 0 5.67 5.67H20a5.67 5.67 0 0 0 5.67-5.67h28.68A5.67 5.67 0 0 0 60 211.5h17.2v53.66a5.67 5.67 0 0 0-5.67 5.67v28.68a5.67 5.67 0 0 0-5.67 5.67v14.34H39.69a2.84 2.84 0 1 0 0 5.67h151.36a2.84 2.84 0 0 0 0-5.67h-26.18v-14.34a5.67 5.67 0 0 0-5.67-5.67v-28.68a5.67 5.67 0 0 0-5.67-5.67V211.5H183A105.75 105.75 0 0 0 183 0zM20 217.17H5.67v-87.68H20v87.68zm34.34-5.67H25.68v-76.34h28.67zm5.66-5.67v-65h17.2v65zm11.53 113.69v-14.34h87.67v14.34zm5.67-20v-28.69h76.33v28.68zM183 205.83h-29.47v-65H183a35.08 35.08 0 1 0-35.08-35.08v159.41h-65V105.75A100.08 100.08 0 0 1 183 5.67a100.08 100.08 0 0 1 100 100.08 100.08 100.08 0 0 1-100 100.08zm-29.42-70.67v-29.41A29.42 29.42 0 1 1 183 135.16zM31.18 319.52H19.84a2.84 2.84 0 0 0 0 5.67h11.34a2.84 2.84 0 1 0 0-5.67zM11.34 319.52H5.67a2.84 2.84 0 1 0 0 5.67h5.67a2.84 2.84 0 0 0 0-5.67zM210.89 319.52h-11.34a2.84 2.84 0 1 0 0 5.67h11.34a2.84 2.84 0 0 0 0-5.67zM225.06 319.52h-5.67a2.84 2.84 0 0 0 0 5.67h5.67a2.84 2.84 0 1 0 0-5.67z"/><path class="cls-5" d="M153.53 205.83v-65h7.17v65zm-86.34 0v-65H60v65zm92 106.52H71.53v7.17h87.67zm-5.67-20H77.2v7.17h76.33zM12.84 217.17v-87.68H5.67v87.68zm20-5.67v-76.34h-7.16v76.34zm115 46.49h-65v7.17h65z"/></g></g></svg>